<svg xmlns="http://www.w3.org/2000/svg" xmlns:xlink="http://www.w3.org/1999/xlink" width="1080" zoomAndPan="magnify" viewBox="0 0 810 809.999993" height="1080" preserveAspectRatio="xMidYMid meet" version="1.0"><defs><clipPath id="a1f55b7a47"><path d="M 61 58 L 559 58 L 559 756.53125 L 61 756.53125 Z M 61 58 " clip-rule="nonzero"/></clipPath><clipPath id="afb0fed8c2"><path d="M 323 53.78125 L 749 53.78125 L 749 740 L 323 740 Z M 323 53.78125 " clip-rule="nonzero"/></clipPath></defs><g clip-path="url(#a1f55b7a47)"><path fill="#ffffff" d="M 63.882812 304.242188 C 66.472656 330.597656 70.558594 356.542969 75.558594 382.1875 C 80.597656 407.828125 86.5625 433.164062 93.308594 458.246094 C 96.671875 470.789062 100.222656 483.273438 103.960938 495.699219 C 107.699219 508.125 111.605469 520.488281 115.679688 532.785156 C 123.84375 557.382812 132.71875 581.765625 142.296875 605.933594 C 147.101562 618.023438 152.128906 630.054688 157.371094 642.035156 C 162.636719 654.015625 168.136719 665.945312 174.054688 677.847656 C 177.015625 683.796875 180.082031 689.742188 183.304688 695.699219 C 186.527344 701.652344 189.914062 707.617188 193.601562 713.648438 C 195.457031 716.667969 197.386719 719.699219 199.46875 722.777344 C 201.550781 725.851562 203.769531 728.988281 206.328125 732.253906 C 207.609375 733.890625 208.972656 735.558594 210.503906 737.300781 C 212.039062 739.042969 213.734375 740.855469 215.816406 742.824219 C 216.367188 743.332031 216.871094 743.808594 217.484375 744.339844 L 218.371094 745.121094 L 219.347656 745.929688 C 219.664062 746.191406 220.050781 746.484375 220.40625 746.761719 C 220.757812 747.039062 221.105469 747.308594 221.539062 747.613281 L 222.769531 748.488281 C 223.226562 748.796875 223.6875 749.101562 224.152344 749.398438 C 226.546875 750.933594 229.066406 752.21875 231.710938 753.257812 C 232.125 753.421875 232.53125 753.574219 232.953125 753.726562 C 233.421875 753.890625 233.902344 754.046875 234.378906 754.195312 C 234.855469 754.34375 235.316406 754.480469 235.847656 754.621094 C 236.378906 754.765625 236.949219 754.898438 237.503906 755.019531 C 238.710938 755.285156 239.925781 755.492188 241.15625 755.632812 C 241.757812 755.710938 242.5 755.773438 243.210938 755.8125 L 243.296875 755.8125 C 247.839844 756.195312 252.386719 756.222656 256.933594 755.890625 C 262.085938 755.519531 267.148438 754.628906 272.117188 753.21875 C 277.453125 751.691406 282.53125 749.550781 287.347656 746.792969 C 289.757812 745.417969 292.078125 743.898438 294.300781 742.230469 C 296.460938 740.609375 298.527344 738.871094 300.496094 737.023438 C 302.371094 735.242188 304.148438 733.367188 305.828125 731.402344 C 307.484375 729.496094 308.96875 727.570312 310.355469 725.632812 C 312.949219 721.960938 315.265625 718.121094 317.304688 714.113281 C 319.144531 710.5 320.785156 706.800781 322.238281 703.019531 C 323.644531 699.410156 324.8125 695.882812 325.851562 692.433594 C 327.933594 685.535156 329.472656 678.925781 330.792969 672.519531 C 332.109375 666.113281 333.167969 659.902344 334.148438 653.839844 C 335.125 647.777344 336.019531 641.871094 336.902344 636.089844 C 337.785156 630.308594 338.683594 624.660156 339.664062 619.15625 C 341.621094 608.15625 343.898438 597.683594 347.128906 588.023438 C 348.695312 583.285156 350.589844 578.683594 352.8125 574.214844 C 353.914062 572.03125 355.089844 569.886719 356.378906 567.820312 C 357.667969 565.75 359.054688 563.738281 360.558594 561.792969 C 363.660156 557.785156 367.164062 554.164062 371.066406 550.929688 C 375.269531 547.460938 379.773438 544.441406 384.578125 541.871094 C 387.0625 540.527344 389.644531 539.25 392.324219 538.089844 C 395.003906 536.929688 397.753906 535.789062 400.589844 534.761719 C 406.25 532.65625 412.1875 530.933594 418.316406 529.167969 C 415.296875 528.121094 412.234375 527.226562 409.125 526.488281 C 408.347656 526.289062 407.566406 526.113281 406.785156 525.953125 L 404.417969 525.460938 C 402.835938 525.191406 401.238281 524.878906 399.628906 524.671875 C 398.023438 524.464844 396.398438 524.253906 394.765625 524.089844 C 393.128906 523.960938 391.488281 523.816406 389.832031 523.753906 C 388.175781 523.695312 386.511719 523.675781 384.832031 523.667969 C 383.152344 523.660156 381.472656 523.75 379.777344 523.867188 C 376.339844 524.09375 372.925781 524.511719 369.535156 525.125 C 366.058594 525.777344 362.632812 526.632812 359.261719 527.699219 C 352.265625 529.933594 345.671875 533.027344 339.480469 536.976562 C 336.339844 538.96875 333.335938 541.152344 330.472656 543.527344 C 327.605469 545.890625 324.882812 548.40625 322.300781 551.074219 C 317.230469 556.339844 312.683594 562.019531 308.660156 568.121094 C 304.78125 573.996094 301.308594 580.097656 298.238281 586.433594 C 295.210938 592.617188 292.570312 598.839844 290.207031 605.019531 C 287.839844 611.195312 285.730469 617.328125 283.792969 623.367188 C 281.855469 629.40625 280.0625 635.347656 278.335938 641.132812 C 276.609375 646.917969 274.957031 652.554688 273.273438 657.925781 C 271.585938 663.296875 269.867188 668.394531 268.085938 673.027344 C 267.195312 675.332031 266.277344 677.523438 265.351562 679.527344 C 264.425781 681.53125 263.480469 683.347656 262.554688 684.933594 C 261.761719 686.3125 260.875 687.628906 259.898438 688.886719 C 259.257812 689.722656 258.539062 690.488281 257.746094 691.179688 C 257.488281 691.402344 257.222656 691.609375 256.945312 691.804688 C 256.699219 691.953125 256.476562 692.101562 256.265625 692.207031 C 255.796875 692.457031 255.308594 692.65625 254.796875 692.804688 C 253.625 691.277344 252.394531 689.554688 251.15625 687.738281 C 249.675781 685.578125 248.183594 683.269531 246.707031 680.890625 C 243.746094 676.121094 240.832031 671.058594 237.984375 665.890625 C 235.140625 660.71875 232.367188 655.390625 229.640625 650.003906 C 224.195312 639.21875 218.972656 628.152344 213.957031 616.941406 C 208.9375 605.730469 204.09375 594.375 199.410156 582.921875 C 190.074219 560.023438 181.375 536.816406 173.304688 513.308594 C 165.222656 489.84375 157.796875 466.1875 151.023438 442.332031 C 144.28125 418.503906 138.226562 394.519531 133.105469 370.441406 C 127.988281 346.367188 123.777344 322.203125 120.933594 298.113281 C 119.53125 286.066406 118.457031 274.042969 117.84375 262.097656 C 117.226562 250.152344 117.082031 238.28125 117.523438 226.605469 C 117.964844 214.929688 119.039062 203.445312 120.925781 192.410156 C 122.8125 181.375 125.535156 170.792969 129.332031 161.195312 C 133.125 151.601562 137.953125 143.042969 143.878906 136.125 C 146.777344 132.703125 150.007812 129.628906 153.566406 126.898438 L 154.222656 126.398438 L 154.894531 125.910156 C 155.335938 125.582031 155.796875 125.277344 156.246094 124.960938 L 156.589844 124.726562 L 156.773438 124.605469 C 156.890625 124.523438 157.007812 124.441406 157.121094 124.351562 L 157.207031 124.289062 C 157.234375 124.265625 157.316406 124.222656 157.371094 124.195312 L 158.460938 123.585938 L 159.929688 122.753906 L 161.742188 121.792969 C 162.945312 121.132812 164.160156 120.542969 165.371094 119.917969 C 170.15625 117.511719 175.066406 115.394531 180.105469 113.566406 C 181.34375 113.097656 182.585938 112.699219 183.832031 112.273438 C 184.453125 112.039062 185.078125 111.878906 185.703125 111.679688 C 186.328125 111.480469 186.949219 111.28125 187.574219 111.105469 C 188.828125 110.761719 190.078125 110.378906 191.335938 110.082031 C 191.960938 109.925781 192.589844 109.757812 193.21875 109.613281 L 195.105469 109.191406 C 205.179688 106.949219 215.363281 106.25 225.648438 107.097656 C 228.226562 107.332031 230.800781 107.609375 233.375 108.035156 C 234.660156 108.210938 235.949219 108.476562 237.238281 108.699219 C 238.523438 108.976562 239.8125 109.210938 241.097656 109.527344 C 246.335938 110.746094 251.480469 112.285156 256.523438 114.148438 C 266.773438 117.957031 276.921875 123.042969 286.8125 129.085938 C 296.707031 135.128906 306.382812 142.042969 315.8125 149.53125 C 320.523438 153.277344 325.1875 157.152344 329.796875 161.152344 C 334.40625 165.152344 338.96875 169.25 343.484375 173.441406 C 352.519531 181.820312 361.375 190.542969 370.144531 199.445312 C 374.527344 203.898438 378.882812 208.402344 383.210938 212.949219 C 387.539062 217.5 391.863281 222.070312 396.179688 226.664062 L 409.082031 240.535156 L 421.957031 254.5 C 430.5625 263.816406 439.160156 273.183594 447.851562 282.492188 C 465.207031 301.121094 482.84375 319.609375 501.152344 337.429688 C 519.460938 355.25 538.414062 372.441406 558.480469 388.136719 C 541.457031 369.195312 525.347656 349.648438 509.792969 329.691406 C 494.238281 309.734375 479.148438 289.433594 464.117188 269.003906 L 441.523438 238.339844 L 430.101562 223.023438 C 426.28125 217.917969 422.425781 212.828125 418.539062 207.746094 C 414.652344 202.664062 410.726562 197.601562 406.761719 192.554688 C 402.796875 187.5 398.773438 182.480469 394.691406 177.488281 C 390.609375 172.492188 386.5 167.507812 382.261719 162.585938 C 378.019531 157.664062 373.738281 152.773438 369.347656 147.929688 C 360.574219 138.242188 351.398438 128.769531 341.636719 119.667969 C 339.203125 117.386719 336.71875 115.140625 334.207031 112.910156 C 331.691406 110.675781 329.125 108.484375 326.511719 106.332031 C 321.304688 102.003906 315.917969 97.804688 310.300781 93.796875 C 307.507812 91.78125 304.628906 89.835938 301.722656 87.917969 C 298.820312 85.996094 295.835938 84.152344 292.785156 82.378906 C 286.632812 78.742188 280.300781 75.457031 273.789062 72.511719 C 270.480469 71.046875 267.136719 69.632812 263.707031 68.347656 C 260.277344 67.0625 256.800781 65.851562 253.246094 64.796875 C 251.484375 64.242188 249.679688 63.773438 247.890625 63.269531 C 246.082031 62.824219 244.285156 62.335938 242.453125 61.949219 C 238.808594 61.109375 235.105469 60.449219 231.378906 59.882812 C 216.46875 57.632812 201.019531 57.808594 186.148438 60.175781 C 178.753906 61.355469 171.472656 63.027344 164.308594 65.203125 C 157.277344 67.332031 150.390625 69.859375 143.65625 72.796875 C 142 73.527344 140.328125 74.25 138.703125 75.027344 L 136.253906 76.179688 L 133.507812 77.539062 L 132.125 78.242188 L 131.4375 78.59375 C 131.316406 78.660156 131.21875 78.699219 131.078125 78.785156 L 130.660156 79.035156 L 128.992188 80.046875 L 128.167969 80.554688 L 127.515625 80.972656 C 126.648438 81.53125 125.777344 82.089844 124.929688 82.679688 L 123.648438 83.554688 L 122.386719 84.457031 C 115.691406 89.277344 109.582031 94.753906 104.066406 100.890625 C 98.714844 106.847656 93.953125 113.242188 89.789062 120.082031 C 85.785156 126.652344 82.285156 133.480469 79.296875 140.570312 C 73.433594 154.453125 69.566406 168.507812 66.835938 182.40625 C 65.472656 189.363281 64.410156 196.296875 63.585938 203.195312 C 62.761719 210.09375 62.15625 216.957031 61.746094 223.792969 C 60.914062 237.453125 60.839844 250.988281 61.246094 264.378906 C 61.652344 277.769531 62.578125 291.066406 63.882812 304.242188 Z M 258.703125 697.316406 L 258.730469 697.339844 Z M 246.914062 693.335938 C 247.078125 693.335938 247.242188 693.359375 247.40625 693.375 L 245.363281 693.296875 C 245.878906 693.296875 246.394531 693.3125 246.910156 693.34375 Z M 246.914062 693.335938 " fill-opacity="1" fill-rule="nonzero"/></g><g clip-path="url(#afb0fed8c2)"><path fill="#0060e3" d="M 342.070312 487.171875 C 344.074219 487.113281 346.078125 487.101562 348.070312 487.082031 C 356.027344 487.035156 363.890625 487.265625 371.550781 487.914062 C 375.378906 488.265625 379.15625 488.667969 382.863281 489.253906 C 386.566406 489.800781 390.203125 490.507812 393.738281 491.335938 C 400.574219 492.890625 407.171875 495.148438 413.53125 498.105469 C 416.496094 499.511719 419.355469 501.097656 422.117188 502.867188 C 424.773438 504.578125 427.296875 506.464844 429.695312 508.519531 C 434.390625 512.574219 438.492188 517.15625 441.996094 522.273438 C 449.058594 532.484375 454.085938 544.773438 457.984375 558.1875 C 461.878906 571.597656 464.625 586.082031 467.113281 601.132812 C 468.351562 608.667969 469.527344 616.347656 470.757812 624.214844 C 471.984375 632.082031 473.273438 640.097656 474.816406 648.351562 C 475.585938 652.480469 476.414062 656.667969 477.367188 660.929688 C 478.320312 665.195312 479.367188 669.539062 480.605469 673.996094 C 481.84375 678.453125 483.285156 683.019531 485.03125 687.75 C 486.898438 692.808594 489.09375 697.714844 491.628906 702.46875 C 494.382812 707.542969 497.78125 712.875 502.4375 718.152344 C 504.882812 720.921875 507.535156 723.476562 510.398438 725.8125 C 511.894531 727.03125 513.472656 728.207031 515.128906 729.324219 C 516.785156 730.441406 518.53125 731.480469 520.328125 732.441406 C 523.9375 734.371094 527.707031 735.925781 531.628906 737.105469 C 533.5625 737.683594 535.5 738.167969 537.429688 738.550781 C 539.359375 738.933594 541.265625 739.210938 543.144531 739.414062 C 545.023438 739.617188 546.859375 739.726562 548.664062 739.773438 C 550.46875 739.820312 552.226562 739.792969 553.9375 739.707031 C 556.710938 739.566406 559.472656 739.277344 562.21875 738.839844 C 562.492188 738.808594 562.753906 738.777344 563.039062 738.742188 C 563.503906 738.683594 563.972656 738.617188 564.421875 738.542969 C 564.871094 738.46875 565.328125 738.386719 565.71875 738.308594 C 566.105469 738.230469 566.527344 738.136719 566.929688 738.042969 C 567.332031 737.949219 567.75 737.851562 568.117188 737.753906 L 569.167969 737.449219 L 570.210938 737.125 C 570.574219 737.007812 570.875 736.890625 571.171875 736.792969 C 571.777344 736.574219 572.378906 736.34375 572.972656 736.105469 C 573.511719 735.871094 574.019531 735.65625 574.539062 735.417969 L 575.296875 735.0625 L 575.976562 734.722656 C 576.417969 734.488281 576.886719 734.253906 577.304688 734.019531 L 578.476562 733.351562 L 579.054688 733.007812 L 579.574219 732.6875 L 580.601562 732.027344 L 581.539062 731.398438 C 581.835938 731.191406 582.160156 730.964844 582.433594 730.769531 L 583.253906 730.164062 C 583.527344 729.960938 583.800781 729.75 584.039062 729.5625 C 585.808594 728.179688 587.503906 726.707031 589.128906 725.148438 C 590.582031 723.761719 591.832031 722.453125 593.011719 721.171875 C 594.1875 719.886719 595.265625 718.648438 596.289062 717.4375 C 597.308594 716.230469 598.269531 715.03125 599.191406 713.855469 C 601.03125 711.5 602.726562 709.203125 604.328125 706.929688 C 607.53125 702.386719 610.414062 697.9375 613.175781 693.503906 C 615.933594 689.074219 618.515625 684.671875 621.023438 680.269531 C 626.027344 671.460938 630.691406 662.675781 635.148438 653.847656 C 639.605469 645.019531 643.859375 636.175781 647.976562 627.300781 C 656.207031 609.542969 663.847656 591.648438 671.097656 573.628906 C 678.351562 555.605469 685.140625 537.445312 691.585938 519.148438 C 704.414062 482.550781 715.738281 445.417969 725.128906 407.585938 C 729.8125 388.671875 734.023438 369.585938 737.574219 350.289062 C 741.125 330.992188 744.050781 311.484375 746.066406 291.714844 C 748.082031 271.945312 749.167969 251.90625 748.785156 231.527344 C 748.582031 221.339844 747.992188 211.066406 746.878906 200.710938 C 745.769531 190.171875 744.035156 179.738281 741.675781 169.410156 C 739.234375 158.917969 736.019531 148.363281 731.644531 137.929688 C 727.265625 127.496094 721.664062 117.191406 714.507812 107.566406 C 710.886719 102.691406 706.921875 98.109375 702.613281 93.824219 C 698.238281 89.476562 693.539062 85.511719 688.519531 81.925781 C 687.269531 81.019531 685.988281 80.15625 684.703125 79.308594 L 682.746094 78.050781 L 680.558594 76.714844 L 680.28125 76.546875 L 680.050781 76.425781 L 679.582031 76.191406 L 678.628906 75.699219 L 677.65625 75.199219 L 677.1875 74.964844 L 676.746094 74.746094 C 675.574219 74.171875 674.40625 73.589844 673.222656 73.03125 C 670.863281 71.898438 668.46875 70.8125 666.0625 69.738281 C 663.660156 68.667969 661.210938 67.652344 658.738281 66.667969 C 648.863281 62.710938 638.535156 59.375 627.734375 57.097656 C 622.285156 55.933594 616.789062 55.074219 611.246094 54.523438 C 605.605469 53.972656 599.957031 53.785156 594.292969 53.964844 C 582.851562 54.308594 571.703125 56.300781 560.851562 59.941406 C 555.582031 61.734375 550.460938 63.878906 545.488281 66.375 C 540.667969 68.828125 536.011719 71.558594 531.523438 74.566406 C 527.113281 77.539062 522.949219 80.703125 518.984375 84 C 515.023438 87.300781 511.261719 90.730469 507.683594 94.257812 C 504.105469 97.785156 500.660156 101.371094 497.382812 105.039062 C 495.738281 106.867188 494.113281 108.707031 492.515625 110.554688 C 490.917969 112.402344 489.34375 114.265625 487.789062 116.140625 C 481.601562 123.628906 475.730469 131.210938 469.925781 138.824219 L 461.242188 150.261719 L 452.496094 161.730469 C 456.644531 159.261719 460.722656 156.667969 464.730469 153.988281 C 468.734375 151.308594 472.703125 148.566406 476.636719 145.804688 C 484.492188 140.273438 492.210938 134.636719 499.917969 129.222656 C 501.84375 127.863281 503.769531 126.527344 505.699219 125.207031 C 507.625 123.882812 509.546875 122.570312 511.476562 121.292969 C 515.34375 118.746094 519.199219 116.261719 523.078125 113.949219 C 526.953125 111.636719 530.839844 109.429688 534.753906 107.453125 C 538.664062 105.476562 542.5625 103.648438 546.484375 102.101562 C 550.320312 100.546875 554.230469 99.226562 558.21875 98.144531 C 562.050781 97.082031 565.933594 96.289062 569.871094 95.761719 C 577.519531 94.734375 585.167969 94.757812 592.808594 95.832031 C 607.957031 97.902344 622.988281 103.910156 637.628906 112 C 641.289062 114.03125 644.921875 116.179688 648.527344 118.453125 C 649.433594 119.015625 650.328125 119.601562 651.230469 120.171875 L 653.589844 121.734375 L 654.414062 122.28125 L 655.425781 122.984375 C 656.101562 123.464844 656.777344 123.941406 657.429688 124.453125 C 662.703125 128.453125 667.308594 133.332031 671.328125 139.035156 C 679.363281 150.441406 684.832031 165.214844 688.128906 181.242188 C 689.78125 189.464844 690.953125 197.753906 691.636719 206.113281 C 692.359375 214.628906 692.671875 223.308594 692.648438 232.078125 C 692.625 249.632812 691.277344 267.5 689.117188 285.410156 C 686.957031 303.320312 683.910156 321.304688 680.289062 339.246094 C 676.664062 357.191406 672.414062 375.085938 667.699219 392.902344 C 662.984375 410.722656 657.804688 428.472656 652.214844 446.109375 C 646.621094 463.746094 640.652344 481.292969 634.304688 498.699219 C 627.960938 516.109375 621.265625 533.386719 614.207031 550.484375 C 607.152344 567.582031 599.71875 584.492188 591.886719 601.085938 C 587.964844 609.382812 583.933594 617.574219 579.785156 625.664062 C 575.632812 633.730469 571.359375 641.671875 566.953125 649.324219 C 564.746094 653.144531 562.503906 656.894531 560.234375 660.507812 C 557.964844 664.125 555.660156 667.601562 553.378906 670.792969 C 552.238281 672.386719 551.113281 673.898438 550.027344 675.273438 C 549.757812 675.613281 549.492188 675.945312 549.226562 676.269531 C 548.222656 675.078125 547.347656 673.796875 546.609375 672.425781 C 545.339844 670.148438 544.230469 667.796875 543.273438 665.371094 C 542.160156 662.652344 541.113281 659.621094 540.085938 656.429688 C 539.054688 653.238281 538.09375 649.851562 537.140625 646.363281 C 536.1875 642.875 535.265625 639.273438 534.378906 635.597656 C 532.574219 628.242188 530.8125 620.589844 528.96875 612.785156 C 527.125 604.984375 525.1875 597.011719 523.023438 588.949219 C 520.859375 580.882812 518.480469 572.71875 515.703125 564.511719 C 512.914062 556.109375 509.695312 547.878906 506.046875 539.8125 C 502.234375 531.382812 497.789062 523.300781 492.707031 515.570312 C 487.492188 507.699219 481.382812 500.105469 474.246094 493.332031 C 467.054688 486.449219 459.035156 480.722656 450.191406 476.152344 C 441.53125 471.730469 432.417969 468.648438 422.851562 466.90625 C 418.289062 466.0625 413.695312 465.523438 409.0625 465.285156 C 404.570312 465.050781 400.078125 465.066406 395.585938 465.34375 C 393.371094 465.457031 391.175781 465.671875 389 465.910156 C 386.828125 466.148438 384.667969 466.4375 382.53125 466.777344 C 378.253906 467.476562 374.058594 468.316406 369.933594 469.351562 C 361.789062 471.382812 353.832031 473.980469 346.058594 477.144531 C 344.136719 477.921875 342.234375 478.730469 340.347656 479.5625 C 339.410156 479.976562 338.472656 480.402344 337.539062 480.835938 C 336.601562 481.269531 335.664062 481.699219 334.742188 482.148438 C 331.03125 483.917969 327.394531 485.820312 323.824219 487.847656 C 327.925781 487.664062 331.996094 487.496094 336.03125 487.339844 C 338.050781 487.269531 340.0625 487.195312 342.070312 487.171875 Z M 554.160156 676.8125 C 555.59375 676.570312 557.035156 676.449219 558.488281 676.449219 Z M 545.679688 680.152344 C 545.605469 680.203125 545.605469 680.210938 545.679688 680.144531 Z M 545.679688 680.152344 " fill-opacity="1" fill-rule="nonzero"/></g></svg>